<?xml version="1.0" encoding="utf-8"?>
<!-- Generator: Adobe Illustrator 24.0.1, SVG Export Plug-In . SVG Version: 6.00 Build 0)  -->
<svg version="1.1" id="Layer_1" xmlns="http://www.w3.org/2000/svg" xmlns:xlink="http://www.w3.org/1999/xlink" x="0px" y="0px"
	 viewBox="0 0 512 512" style="enable-background:new 0 0 512 512;" xml:space="preserve">
<style type="text/css">
	.st0{fill:#0B6D10;}
</style>
<g>
	<path class="st0" d="M420.62,106.66L287.81,29.98c-20.66-11.93-46.11-11.93-66.76,0L88.23,106.66
		c-20.66,11.93-33.38,33.97-33.38,57.82v153.36c0,23.85,12.72,45.89,33.38,57.82l167.66,96.8c16.93,9.77,36.13,14.92,55.68,14.92
		h102.87L238.8,385.98l0,0l-105.77-61.07c-7.32-4.23-11.83-12.03-11.83-20.49V177.9c0-8.45,4.51-16.26,11.83-20.49L242.6,94.16
		c7.32-4.23,16.34-4.23,23.65,0l109.57,63.26c7.32,4.23,11.83,12.03,11.83,20.49v126.52c0,8.45-4.51,16.26-11.83,20.49L293,372.73
		l55.81,32.22c6.52,3.77,14.56,3.77,21.09,0l50.73-29.29c20.66-11.93,33.38-33.97,33.38-57.82V164.48
		C454,140.63,441.28,118.59,420.62,106.66z"/>
	<polygon class="st0" points="238.8,341.44 254.43,350.46 254.43,241.16 159.77,186.52 159.77,295.81 	"/>
</g>
</svg>
